<svg id="Layer_1" data-name="Layer 1" xmlns="http://www.w3.org/2000/svg" viewBox="0 0 2347.64 590.51"><defs><style>.cls-1{fill:#004a98;}.cls-2{fill:#7badd3;}.cls-3{fill:#ee7623;}</style></defs><title>NewHorizons_WithTagline_</title><path class="cls-1" d="M629.65,292.36V163h35.56V375.69h-1.14L536.66,242.3V372H501.1V159.25h1.14Z"/><path class="cls-1" d="M832.75,298.9v11.94H731.51c1.42,22.47,15.36,35,39.25,35,17.06,0,29.58-7.12,36.4-16.22l22.75,17.92c-13.93,17.35-33.27,27.31-59.72,27.31-44.37,0-73.38-31.29-73.38-74.24,0-43.23,28.72-74.8,70.25-74.8C810.86,225.8,832.75,258.8,832.75,298.9ZM731.51,286.39h67.4c-.85-19.63-12.23-33.28-32.42-33.28S732.64,266.47,731.51,286.39Z"/><path class="cls-1" d="M985.8,376.78h-1.14l-39.54-76.56-39.81,76.56h-1.14L836.47,227.9h36.69l34.14,83.7,37.25-79.07h1.14l37,79.07,36.12-83.7h36.4Z"/><path class="cls-1" d="M1307.8,372h-35.56V281.26H1177V372h-35.55V163H1177v85.89h95.27V163h35.56Z"/><path class="cls-1" d="M1488.44,300.6c0,42.95-31.57,74.24-74.8,74.24-43,0-74.23-31.29-74.23-74.24,0-43.23,31.28-74.8,74.23-74.8C1456.87,225.8,1488.44,257.37,1488.44,300.6Zm-114.33,0c0,25.6,16.49,44.09,39.53,44.09,23.32,0,40.1-18.49,40.1-44.09,0-25.88-16.78-44.65-40.1-44.65C1390.6,256,1374.11,274.72,1374.11,300.6Z"/><path class="cls-1" d="M1599.19,259.93h-3.13c-17.35,0-28.44,9.11-37.26,21.62V372h-34.41V228.65h30.72l2,19c7.11-11.37,21.34-21.9,42.1-21.9Z"/><path class="cls-1" d="M1667.74,372h-34.41V228.65h34.41Z"/><path class="cls-1" d="M1823.33,229.78,1756.78,343h66.27v29H1704.16v-1.13l66.56-113.2h-62.29v-29h114.9Z"/><path class="cls-1" d="M1988.59,300.6c0,42.95-31.57,74.24-74.79,74.24-43,0-74.24-31.29-74.24-74.24,0-43.23,31.29-74.8,74.24-74.8C1957,225.8,1988.59,257.37,1988.59,300.6Zm-114.33,0c0,25.6,16.5,44.09,39.54,44.09,23.32,0,40.09-18.49,40.09-44.09,0-25.88-16.77-44.65-40.09-44.65C1890.76,256,1874.26,274.72,1874.26,300.6Z"/><path class="cls-1" d="M2146.47,288.09V372h-34.13V290.08c0-19.05-11.09-31.85-28.73-31.85-15.07,0-25.31,9.1-32.42,19.91V372h-34.41V228.65h31l1.42,16.49c7.68-10.23,22.47-19.34,43.23-19.34C2127.13,225.8,2146.47,250.55,2146.47,288.09Z"/><path class="cls-1" d="M2284.44,240.31l-13.37,25.31a66.46,66.46,0,0,0-37.83-11.94c-13.36,0-21.9,4.26-21.9,14.22,0,9.38,6.83,12.51,27.59,17.34,32.43,8,47.5,21.62,47.5,43.24,0,27.87-23,46.36-60,46.36-21.61,0-41.52-6-54.6-16.5L2186,332.46A62.07,62.07,0,0,0,2226.7,347c15.36,0,25-4.83,25-15.07,0-10-6.83-14.22-26.73-19.05-33.57-7.68-47.79-19.63-47.79-41.81,0-27.88,21.62-45.23,56.88-45.23C2253.72,225.8,2272.49,231.78,2284.44,240.31Z"/><path class="cls-1" d="M1667.74,205.92h-34.41V176.08h34.41Z"/><path class="cls-1" d="M2331,200.78a22.27,22.27,0,0,1-44.53,0c0-12,9.91-21.68,22.33-21.68S2331,188.75,2331,200.78Zm-39,0c0,9.64,7.13,17.31,16.91,17.31,9.52,0,16.52-7.67,16.52-17.18s-7-17.45-16.65-17.45S2292,191.26,2292,200.78Zm13.34,11.36h-5V190.47a43.63,43.63,0,0,1,8.33-.66c4.1,0,5.95.66,7.53,1.58a6,6,0,0,1,2.11,4.76c0,2.38-1.85,4.23-4.49,5v.27c2.12.79,3.31,2.38,4,5.28.66,3.31,1.05,4.63,1.58,5.42h-5.42c-.66-.79-1-2.77-1.71-5.29-.4-2.37-1.72-3.43-4.5-3.43h-2.38Zm.14-12.29h2.38c2.77,0,5-.92,5-3.17,0-2-1.46-3.3-4.63-3.3a12.18,12.18,0,0,0-2.77.26Z"/><path class="cls-2" d="M16.68,226.09c27.64,21.27,65.53,39.68,105.39,51.76L144,239.61a244.11,244.11,0,0,1-98.45-27.4Z"/><path class="cls-2" d="M144.91,306.55c32.42,5.73,70,3.32,103.68-4l-10.42,60.14a353.25,353.25,0,0,1-108.06-20.83Z"/><path class="cls-1" d="M276.59,360.4c33.54-9,71.24-25.91,102.94-53.2l2.14-90.52c-28.66,33.45-66.21,60.11-98,75.92Z"/><path class="cls-2" d="M267.93,441.85c33.68-.58,75.32-5.69,109-23.44l1.85-78.2C347.69,363,306.19,379.44,274,385.85Z"/><path class="cls-3" d="M286.43,258.86c34.28-18.1,66.06-46.33,96.26-85.26l2.16-91.16A246.15,246.15,0,0,1,293.14,197Z"/><path class="cls-1" d="M153.93,285.15a227.28,227.28,0,0,0,99.79-12.87l9.88-58.18a243.88,243.88,0,0,1-90.7,24.24Z"/><path class="cls-2" d="M1290.06,441.15l-14.73,70.3H1317l-3.38,15.95H1253l18-86.25Z"/><path class="cls-2" d="M1340.31,501.42V504a12,12,0,0,0,3.38,8.82q3.39,3.38,10.39,3.38a12.36,12.36,0,0,0,4.53-.78,13.55,13.55,0,0,0,3.5-2,14.32,14.32,0,0,0,2.66-2.78c.76-1,1.47-2.05,2.11-3H1384a44,44,0,0,1-4.84,9.31,26.93,26.93,0,0,1-6.64,6.7,27.63,27.63,0,0,1-9,4,48,48,0,0,1-11.9,1.33,36.25,36.25,0,0,1-11.41-1.7,22.82,22.82,0,0,1-8.76-5.13,23.31,23.31,0,0,1-5.62-8.52,32.39,32.39,0,0,1-2-11.83,43.64,43.64,0,0,1,2.42-14.44,39.83,39.83,0,0,1,6.82-12.32,32.69,32.69,0,0,1,10.81-8.57,31.64,31.64,0,0,1,14.38-3.21,39.78,39.78,0,0,1,11.9,1.69,24.41,24.41,0,0,1,9.18,5.14,23.27,23.27,0,0,1,5.91,8.57,31.13,31.13,0,0,1,2.12,11.9,53.16,53.16,0,0,1-1,9.79h-46A5.56,5.56,0,0,0,1340.31,501.42Zm30.14-16.72a12.29,12.29,0,0,0-1.63-4.29,8.48,8.48,0,0,0-3.51-3.08,13.47,13.47,0,0,0-6-1.15,17.61,17.61,0,0,0-6.41,1.08,16.2,16.2,0,0,0-4.83,2.91,16.37,16.37,0,0,0-3.44,4.22,32.61,32.61,0,0,0-2.36,5.08h28.63A27,27,0,0,0,1370.45,484.7Z"/><path class="cls-2" d="M1402.88,474.06a22.71,22.71,0,0,1,6.77-6.34,28.14,28.14,0,0,1,8.93-3.44,50.81,50.81,0,0,1,10.27-1,68.16,68.16,0,0,1,8.82.61,30,30,0,0,1,8.46,2.35,16.62,16.62,0,0,1,6.34,5,13.08,13.08,0,0,1,2.35,8.52,49.61,49.61,0,0,1-1.33,10.51l-5.55,25.13a20.2,20.2,0,0,0-.67,4.16c-.12,1.66-.18,3.08-.18,4.29a12.84,12.84,0,0,0,.61,3.63h-17.16v-6.16a20.73,20.73,0,0,1-8.58,5.85,30,30,0,0,1-10.5,1.88,27,27,0,0,1-8.88-1.33,18.91,18.91,0,0,1-6.34-3.57,13.93,13.93,0,0,1-3.75-5.19,16.41,16.41,0,0,1-1.21-6.22q0-9.06,6.23-14.5t17.57-6.76c4-.48,7.53-.85,10.51-1.09a42.57,42.57,0,0,0,7.43-1.15,9.27,9.27,0,0,0,4.41-2.29,6.35,6.35,0,0,0,1.45-4.53,6.28,6.28,0,0,0-1.09-3.87,7.94,7.94,0,0,0-2.72-2.29,11.52,11.52,0,0,0-3.5-1.15,22.6,22.6,0,0,0-3.56-.3,15.33,15.33,0,0,0-8.22,2.23,9.79,9.79,0,0,0-4.47,7h-16.06A22.23,22.23,0,0,1,1402.88,474.06Zm25.61,25.74q-3.75.42-7.49.66a36.15,36.15,0,0,0-4.71.78,13.91,13.91,0,0,0-4,1.63,8.38,8.38,0,0,0-2.83,3,9.36,9.36,0,0,0-1.09,4.77,5.76,5.76,0,0,0,2.84,5.26,12.23,12.23,0,0,0,6.58,1.75,15.74,15.74,0,0,0,6.7-1.27,14.61,14.61,0,0,0,4.59-3.26,15.36,15.36,0,0,0,3-4.53,42.86,42.86,0,0,0,1.82-5.07l1.68-6A17.47,17.47,0,0,1,1428.49,499.8Z"/><path class="cls-2" d="M1489.25,464.94l-2.54,11.24.24.24a20.65,20.65,0,0,1,8.76-9.85,25.45,25.45,0,0,1,12.75-3.32,39.48,39.48,0,0,1,5.31.36l-3.5,16.67-3.63-.72a18.52,18.52,0,0,0-3.62-.36,18.84,18.84,0,0,0-8.39,1.69,17.08,17.08,0,0,0-5.8,4.59,23.65,23.65,0,0,0-3.75,6.58,53.41,53.41,0,0,0-2.23,7.67l-5.8,27.67h-17l12.92-62.46Z"/><path class="cls-2" d="M1538.53,464.94l-1.93,8.7h.24a26.71,26.71,0,0,1,21.86-10.39q18.24,0,18.24,16.79a16.31,16.31,0,0,1-.24,2.48c-.16,1-.34,2-.54,3.08s-.41,2-.6,3-.35,1.67-.43,2.23l-7.73,36.61h-17.15l7.61-36.61c.16-1,.38-2.25.66-3.86a22.57,22.57,0,0,0,.43-3.75,5.4,5.4,0,0,0-2.6-4.58,9.65,9.65,0,0,0-5.62-1.82,14.86,14.86,0,0,0-6.82,1.51,16.85,16.85,0,0,0-5.08,3.93,21.79,21.79,0,0,0-3.5,5.55,34.39,34.39,0,0,0-2.12,6.41l-7,33.22h-17l12.92-62.46Z"/><path class="cls-2" d="M1680.94,527.4l-2.17-61.61h-.24l-26.82,61.61h-19.08l-5.92-86.25h19l1.21,63.17h.24l27.3-63.17h18.12l2.17,62.93h.25l26.33-62.93h19l-40.46,86.25Z"/><path class="cls-2" d="M1765.62,441.15l-6.4,31h.24a18.19,18.19,0,0,1,2.78-2.9,22.9,22.9,0,0,1,4.34-2.9,29,29,0,0,1,5.92-2.23,29.57,29.57,0,0,1,7.61-.91q18.24,0,18.24,16.79a16.31,16.31,0,0,1-.24,2.48c-.16,1-.34,2-.54,3.08s-.41,2-.61,3-.34,1.67-.42,2.23l-7.73,36.61h-17.15l7.61-36.61c.16-1,.38-2.25.66-3.86a23.47,23.47,0,0,0,.42-3.75,5.38,5.38,0,0,0-2.6-4.58,9.6,9.6,0,0,0-5.61-1.82,14.93,14.93,0,0,0-6.83,1.51,16.93,16.93,0,0,0-5.07,3.93,21.52,21.52,0,0,0-3.5,5.55,34.39,34.39,0,0,0-2.12,6.41l-7,33.22h-17l17.87-86.25Z"/><path class="cls-2" d="M1816.59,474.06a22.71,22.71,0,0,1,6.77-6.34,28.2,28.2,0,0,1,8.94-3.44,50.71,50.71,0,0,1,10.26-1,68.16,68.16,0,0,1,8.82.61,30,30,0,0,1,8.46,2.35,16.47,16.47,0,0,1,6.34,5,13,13,0,0,1,2.35,8.52,50.19,50.19,0,0,1-1.32,10.51l-5.56,25.13a21.65,21.65,0,0,0-.67,4.16c-.11,1.66-.18,3.08-.18,4.29a12.84,12.84,0,0,0,.61,3.63h-17.15v-6.16a20.86,20.86,0,0,1-8.58,5.85,30.05,30.05,0,0,1-10.51,1.88,27.11,27.11,0,0,1-8.88-1.33,19,19,0,0,1-6.34-3.57,13.79,13.79,0,0,1-3.74-5.19,16.22,16.22,0,0,1-1.21-6.22q0-9.06,6.22-14.5t17.58-6.76c4-.48,7.52-.85,10.51-1.09a42.44,42.44,0,0,0,7.42-1.15,9.17,9.17,0,0,0,4.41-2.29,7.62,7.62,0,0,0,.36-8.4,7.9,7.9,0,0,0-2.71-2.29,11.68,11.68,0,0,0-3.51-1.15,22.41,22.41,0,0,0-3.56-.3,15.3,15.3,0,0,0-8.21,2.23,9.73,9.73,0,0,0-4.47,7H1813A22.23,22.23,0,0,1,1816.59,474.06Zm25.61,25.74q-3.73.42-7.49.66a36.15,36.15,0,0,0-4.71.78,13.73,13.73,0,0,0-4,1.63,8.32,8.32,0,0,0-2.84,3,9.36,9.36,0,0,0-1.09,4.77,5.78,5.78,0,0,0,2.84,5.26,12.23,12.23,0,0,0,6.58,1.75,15.75,15.75,0,0,0,6.71-1.27,14.56,14.56,0,0,0,4.58-3.26,15.59,15.59,0,0,0,3-4.53,42.78,42.78,0,0,0,1.81-5.07l1.69-6A17.52,17.52,0,0,1,1842.2,499.8Z"/><path class="cls-2" d="M1921,464.94l-2.66,11.48h-12.2l-6.4,31c-.16.65-.29,1.23-.37,1.75a8.25,8.25,0,0,0-.11,1.15,5.14,5.14,0,0,0,.54,2.6,3.78,3.78,0,0,0,1.39,1.39,4.2,4.2,0,0,0,1.87.54c.68.05,1.35.06,2,.06a52,52,0,0,0,6.16-.36l-2.9,13.17q-2.65.24-5.31.42c-1.77.12-3.59.18-5.44.18a33.33,33.33,0,0,1-6-.54,16.18,16.18,0,0,1-5.31-1.94,10.28,10.28,0,0,1-3.75-3.8,11.71,11.71,0,0,1-1.26-6.28,17.49,17.49,0,0,1,.24-2.72c.16-1,.36-2.07.6-3.2l7-33.46h-11.23l2.65-11.48h11l3.87-19h17.15l-3.86,19Z"/><path class="cls-2" d="M2036.8,441.15l-3.26,15.94h-46.87l-3.87,18.49h43.37L2023,490.31h-43.37l-4.47,21.14h47.6l-3.39,15.95H1953l18-86.25Z"/><path class="cls-2" d="M2044.77,474.06a22.71,22.71,0,0,1,6.77-6.34,28.14,28.14,0,0,1,8.93-3.44,50.81,50.81,0,0,1,10.27-1,68.16,68.16,0,0,1,8.82.61,29.84,29.84,0,0,1,8.45,2.35,16.58,16.58,0,0,1,6.35,5,13.08,13.08,0,0,1,2.35,8.52,49.61,49.61,0,0,1-1.33,10.51l-5.55,25.13a20.2,20.2,0,0,0-.67,4.16c-.12,1.66-.18,3.08-.18,4.29a12.84,12.84,0,0,0,.61,3.63h-17.16v-6.16a20.73,20.73,0,0,1-8.58,5.85,30,30,0,0,1-10.5,1.88,27,27,0,0,1-8.88-1.33,18.91,18.91,0,0,1-6.34-3.57,13.93,13.93,0,0,1-3.75-5.19,16.41,16.41,0,0,1-1.21-6.22q0-9.06,6.23-14.5T2057,491.4c4-.48,7.53-.85,10.51-1.09a42.57,42.57,0,0,0,7.43-1.15,9.27,9.27,0,0,0,4.41-2.29,6.35,6.35,0,0,0,1.45-4.53,6.28,6.28,0,0,0-1.09-3.87,7.94,7.94,0,0,0-2.72-2.29,11.52,11.52,0,0,0-3.5-1.15,22.6,22.6,0,0,0-3.56-.3,15.33,15.33,0,0,0-8.22,2.23,9.79,9.79,0,0,0-4.47,7h-16.06A22.23,22.23,0,0,1,2044.77,474.06Zm25.61,25.74q-3.75.42-7.49.66a36.15,36.15,0,0,0-4.71.78,13.91,13.91,0,0,0-4,1.63,8.38,8.38,0,0,0-2.83,3,9.36,9.36,0,0,0-1.09,4.77,5.76,5.76,0,0,0,2.84,5.26,12.23,12.23,0,0,0,6.58,1.75,15.74,15.74,0,0,0,6.7-1.27,14.61,14.61,0,0,0,4.59-3.26,15.36,15.36,0,0,0,3-4.53,42.86,42.86,0,0,0,1.82-5.07l1.68-6A17.47,17.47,0,0,1,2070.38,499.8Z"/><path class="cls-2" d="M2131.13,464.94l-2.53,11.24.24.24a20.54,20.54,0,0,1,8.76-9.85,25.42,25.42,0,0,1,12.74-3.32,39.62,39.62,0,0,1,5.32.36l-3.51,16.67-3.62-.72a18.52,18.52,0,0,0-3.62-.36,18.89,18.89,0,0,0-8.4,1.69,17.18,17.18,0,0,0-5.8,4.59,23.38,23.38,0,0,0-3.74,6.58,52.18,52.18,0,0,0-2.24,7.67l-5.79,27.67h-17l12.92-62.46Z"/><path class="cls-2" d="M2180.42,464.94l-1.94,8.7h.24a26.71,26.71,0,0,1,21.87-10.39q18.24,0,18.24,16.79a16.31,16.31,0,0,1-.24,2.48c-.16,1-.34,2-.55,3.08s-.4,2-.6,3-.34,1.67-.42,2.23l-7.73,36.61h-17.15l7.6-36.61c.17-1,.38-2.25.67-3.86a23.47,23.47,0,0,0,.42-3.75,5.38,5.38,0,0,0-2.6-4.58,9.6,9.6,0,0,0-5.61-1.82,14.9,14.9,0,0,0-6.83,1.51,16.93,16.93,0,0,0-5.07,3.93,21.52,21.52,0,0,0-3.5,5.55,33.67,33.67,0,0,0-2.12,6.41l-7,33.22h-17L2164,464.94Z"/><path class="cls-2" d="M2266.36,477q-2.24-2.23-7.31-2.23a17.77,17.77,0,0,0-7.55,1.39,4.87,4.87,0,0,0-3,4.77,4.42,4.42,0,0,0,1.75,3.5,18.42,18.42,0,0,0,6.11,2.78L2265,490a45.4,45.4,0,0,1,6.47,2.54,20.66,20.66,0,0,1,5.19,3.56,15.14,15.14,0,0,1,3.5,5,16.72,16.72,0,0,1,1.27,6.77,17.84,17.84,0,0,1-2.6,9.84,20.55,20.55,0,0,1-6.82,6.58,30,30,0,0,1-9.55,3.63,53.78,53.78,0,0,1-10.75,1.09,46.5,46.5,0,0,1-9.3-1,27.7,27.7,0,0,1-8.51-3.2,18.64,18.64,0,0,1-6.22-5.92,16.46,16.46,0,0,1-2.42-9.24V507.1h15.82v2.06a6.46,6.46,0,0,0,1.09,3.74,8.89,8.89,0,0,0,2.84,2.6,15,15,0,0,0,4,1.57,18.73,18.73,0,0,0,4.41.54,21.09,21.09,0,0,0,3.86-.36,11.22,11.22,0,0,0,3.51-1.27,7.77,7.77,0,0,0,2.53-2.29,6.17,6.17,0,0,0,1-3.57c0-2.17-.57-3.7-1.69-4.59a15.78,15.78,0,0,0-4.47-2.3L2244.92,499a47.52,47.52,0,0,1-5.74-2.3,14.62,14.62,0,0,1-4.22-3,11.74,11.74,0,0,1-2.66-4.35,18.65,18.65,0,0,1-.91-6.28,16,16,0,0,1,2.6-9.3,20.37,20.37,0,0,1,6.7-6.1,30.79,30.79,0,0,1,9-3.38,45.89,45.89,0,0,1,9.36-1,55.72,55.72,0,0,1,9.79.85,23,23,0,0,1,8.27,3.08,15.76,15.76,0,0,1,5.62,6.1,20.14,20.14,0,0,1,1.93,9.9h-15.94A8.88,8.88,0,0,0,2266.36,477Z"/></svg>